HIERARCHY
ROOT Hips
{
    OFFSET 0.000000 0.000000 0.000000
    CHANNELS 6 Xposition Yposition Zposition Zrotation Xrotation Yrotation
    JOINT Spine
    {
        OFFSET -0.000000 14.517291 0.000000
        CHANNELS 3 Zrotation Xrotation Yrotation
        JOINT Spine1
        {
            OFFSET -0.000000 37.558300 0.000000
            CHANNELS 3 Zrotation Xrotation Yrotation
            JOINT Neck
            {
                OFFSET -0.000000 37.404057 3.400369
                CHANNELS 3 Zrotation Xrotation Yrotation
                JOINT Head
                {
                    OFFSET -0.000000 24.785618 -3.540803
                    CHANNELS 3 Zrotation Xrotation Yrotation
                    End Site
                    {
                        OFFSET -0.000000 35.408028 0.000000
                    }
                }
            }
            JOINT LeftShoulder
            {
                OFFSET 6.992933 33.973492 -0.192664
                CHANNELS 3 Zrotation Xrotation Yrotation
                JOINT LeftArm
                {
                    OFFSET 21.527611 0.000000 0.000000
                    CHANNELS 3 Zrotation Xrotation Yrotation
                    JOINT LeftForeArm
                    {
                        OFFSET 56.353916 0.000000 0.000000
                        CHANNELS 3 Zrotation Xrotation Yrotation
                        JOINT LeftHand
                        {
                            OFFSET 47.774071 0.000000 0.000000
                            CHANNELS 3 Zrotation Xrotation Yrotation
                            End Site
                            {
                                OFFSET 26.556021 0.000000 0.000000
                            }
                        }
                    }
                }
            }
            JOINT RightShoulder
            {
                OFFSET -7.065357 33.973492 -0.192664
                CHANNELS 3 Zrotation Xrotation Yrotation
                JOINT RightArm
                {
                    OFFSET -21.527611 0.000000 0.000000
                    CHANNELS 3 Zrotation Xrotation Yrotation
                    JOINT RightForeArm
                    {
                        OFFSET -56.353916 0.000000 0.000000
                        CHANNELS 3 Zrotation Xrotation Yrotation
                        JOINT RightHand
                        {
                            OFFSET -47.774071 0.000000 0.000000
                            CHANNELS 3 Zrotation Xrotation Yrotation
                            End Site
                            {
                                OFFSET -26.556021 0.000000 0.000000
                            }
                        }
                    }
                }
            }
        }
    }
    JOINT LeftUpLeg
    {
        OFFSET 17.704014 0.000000 0.000000
        CHANNELS 3 Zrotation Xrotation Yrotation
        JOINT LeftLeg
        {
            OFFSET -0.000000 -81.181816 0.000000
            CHANNELS 3 Zrotation Xrotation Yrotation
            JOINT LeftFoot
            {
                OFFSET -0.000000 -62.821102 0.000000
                CHANNELS 3 Zrotation Xrotation Yrotation
                JOINT LeftToeBase
                {
                    OFFSET -0.000000 -11.507608 26.556021
                    CHANNELS 3 Zrotation Xrotation Yrotation
                    End Site
                    {
                        OFFSET -0.000000 0.000000 7.081605
                    }
                }
            }
        }
    }
    JOINT RightUpLeg
    {
        OFFSET -17.704014 0.000000 0.000000
        CHANNELS 3 Zrotation Xrotation Yrotation
        JOINT RightLeg
        {
            OFFSET -0.000000 -81.181816 0.000000
            CHANNELS 3 Zrotation Xrotation Yrotation
            JOINT RightFoot
            {
                OFFSET -0.000000 -62.821102 0.000000
                CHANNELS 3 Zrotation Xrotation Yrotation
                JOINT RightToeBase
                {
                    OFFSET -0.000000 -11.507608 26.556021
                    CHANNELS 3 Zrotation Xrotation Yrotation
                    End Site
                    {
                        OFFSET -0.000000 0.000000 7.081605
                    }
                }
            }
        }
    }
}
MOTION
Frames:    8
Frame Time:    0.008333
-10.532184    154.528290    -66.735344    -3.469111    0.223581    41.560062    -0.791816    -0.923140    -2.069442    -7.075918    1.881618    -0.571461    3.747204    0.305189    -16.599260    14.408972    -1.212498    -15.688636    6.419158    7.817851    -17.511242    -34.536533    20.965700    -50.855816    -5.762290    -12.462735    -117.425102    0.382457    -21.567734    -6.513590    -15.063177    -4.319370    -5.866717    20.223217    -22.403904    50.175251    -16.431120    -17.710091    49.320862    3.395270    -9.400580    31.259682    28.040966    -5.125004    -7.221415    -11.995799    34.233887    -20.178398    -12.432464    -21.831072    39.032299    0.000000    0.000000    0.000000    -8.533715    -27.447412    -8.580850    18.210997    41.893429    -18.955885    -1.367580    -11.903301    -15.921668    0.000000    0.000000    0.000000    
-10.341783    154.278473    -67.156960    -3.490803    0.162860    41.687962    -0.790994    -0.924640    -2.116050    -6.985307    1.898610    -0.587412    3.685546    0.394290    -16.665190    14.487955    -1.162998    -15.740290    6.369952    7.809871    -17.611877    -34.465668    20.909126    -50.968880    -5.735396    -12.495221    -117.397522    0.327792    -21.549500    -6.531762    -15.105092    -4.354708    -5.854211    20.210903    -22.397392    50.085518    -16.456154    -17.731770    49.263794    3.434928    -9.413265    31.165796    28.153957    -5.154917    -7.360629    -12.165265    34.237717    -19.993025    -12.725419    -22.367657    38.458900    0.000000    0.000000    0.000000    -8.798758    -27.601782    -8.648028    18.518276    42.166428    -19.203142    -1.286021    -12.057237    -15.977149    0.000000    0.000000    0.000000    
-10.120070    154.039383    -67.609688    -3.488137    0.100493    41.805111    -0.746171    -0.910040    -2.175280    -7.041833    1.922002    -0.604961    3.692004    0.372684    -16.704865    14.590923    -0.971197    -15.792493    6.458340    7.783299    -17.632521    -34.382641    20.943056    -51.180328    -5.659388    -12.624071    -117.316788    0.244913    -21.536694    -6.588623    -15.053178    -4.334980    -5.867024    20.279104    -22.473494    50.101986    -16.430368    -17.703918    49.143826    3.382053    -9.428698    31.261440    28.196590    -5.185374    -7.412220    -12.259726    34.330551    -19.895922    -13.139067    -22.933226    37.962471    0.000000    0.000000    0.000000    -9.100399    -27.727167    -8.706572    18.832069    42.413219    -19.451225    -1.162975    -12.204618    -16.028288    0.000000    0.000000    0.000000    
-9.898759    153.803375    -68.092812    -3.494300    0.071101    41.903599    -0.773428    -0.921394    -2.213976    -6.979987    1.937053    -0.617969    3.704843    0.400928    -16.774612    14.594242    -0.854262    -15.880969    6.458070    7.793575    -17.682760    -34.292572    20.939264    -51.365402    -5.594726    -12.733980    -117.268814    0.164321    -21.529573    -6.609770    -15.059081    -4.327848    -5.827402    20.250013    -22.471172    50.025059    -16.522654    -17.767254    49.010277    3.378287    -9.476555    31.237949    28.217045    -5.286500    -7.334366    -12.385896    34.508991    -19.791437    -13.748390    -23.658125    37.611328    0.000000    0.000000    0.000000    -9.416046    -27.897635    -8.801078    19.088560    42.671169    -19.704964    -1.013138    -12.319296    -16.021019    0.000000    0.000000    0.000000    
-9.656847    153.577240    -68.587204    -3.503381    0.012698    42.020576    -0.755496    -0.922983    -2.242824    -6.949479    1.982223    -0.625413    3.632806    0.461642    -16.850410    14.770398    -0.797470    -15.929607    6.454916    7.722469    -17.766371    -34.285843    20.923233    -51.468567    -5.602242    -12.724842    -117.258484    0.110674    -21.527727    -6.649919    -15.067776    -4.329030    -5.856217    20.233732    -22.465332    49.961967    -16.593670    -17.824358    48.884911    3.346891    -9.535541    31.170126    28.229179    -5.365955    -7.324449    -12.520074    34.658707    -19.633680    -14.146673    -24.206102    37.275291    0.000000    0.000000    0.000000    -9.732480    -28.022346    -8.894495    19.371609    42.882149    -20.027279    -0.857315    -12.413703    -15.950155    0.000000    0.000000    0.000000    
-9.400574    153.368195    -69.110580    -3.503206    -0.029705    42.089840    -0.731908    -0.930513    -2.264488    -6.974796    1.998531    -0.631261    3.593436    0.403396    -16.901730    14.891809    -0.534896    -15.995855    6.504274    7.723082    -17.814716    -34.156677    20.989313    -51.660889    -5.496349    -12.960870    -117.223831    0.043674    -21.580549    -6.657753    -15.044910    -4.309582    -5.847674    20.260590    -22.497030    49.943542    -16.636339    -17.813536    48.721172    3.322175    -9.538326    31.230850    28.170641    -5.458715    -7.224902    -12.652484    34.871742    -19.369408    -14.348087    -24.704550    37.011837    0.000000    0.000000    0.000000    -10.055285    -28.161110    -9.028808    19.573753    43.097408    -20.266247    -0.690070    -12.463417    -15.859259    0.000000    0.000000    0.000000    
-9.129815    153.165512    -69.648781    -3.503416    -0.071803    42.174831    -0.743488    -0.926941    -2.270243    -6.966146    2.012829    -0.632386    3.650033    0.441323    -16.955313    14.923943    -0.506413    -16.058310    6.596782    7.694025    -17.870594    -34.189186    20.976358    -51.842609    -5.478264    -12.948131    -117.188278    0.072817    -21.536301    -6.650524    -15.015163    -4.320693    -5.875378    20.192186    -22.434566    49.847488    -16.738937    -17.866175    48.557140    3.193202    -9.612320    31.157360    28.087425    -5.573791    -7.036943    -12.732699    35.098469    -19.209728    -14.336473    -25.136152    36.721790    0.000000    0.000000    0.000000    -10.399438    -28.293604    -9.210998    19.762463    43.310646    -20.488491    -0.496392    -12.488695    -15.755324    0.000000    0.000000    0.000000    
-8.853438    152.951462    -70.211685    -3.489962    -0.128718    42.252068    -0.728068    -0.891060    -2.291431    -6.971396    2.005618    -0.639945    3.606395    0.465608    -17.032415    15.034863    -0.379229    -16.132868    6.623239    7.646026    -17.915411    -34.158978    21.021971    -51.961876    -5.417650    -13.028062    -117.184814    0.053742    -21.517920    -6.652354    -14.984978    -4.292746    -5.855611    20.083683    -22.386145    49.747822    -16.860428    -17.985149    48.381527    3.223930    -9.700059    31.247084    27.962742    -5.680085    -6.810822    -12.781060    35.367390    -19.087496    -14.110559    -25.551048    36.447449    0.000000    0.000000    0.000000    -10.763357    -28.409012    -9.286950    20.079697    43.480717    -20.838795    -0.333469    -12.500012    -15.677279    0.000000    0.000000    0.000000    
